<?xml version="1.0" encoding="UTF-8" standalone="no"?>
<!-- Created with Inkscape (http://www.inkscape.org/) -->

<svg
   version="1.1"
   id="svg258"
   width="4000"
   height="3000"
   viewBox="0 0 4000 3000"
   sodipodi:docname="Green_School_Chalkboard_Background.svg"
   inkscape:version="1.2.2 (b0a84865, 2022-12-01)"
   xmlns:inkscape="http://www.inkscape.org/namespaces/inkscape"
   xmlns:sodipodi="http://sodipodi.sourceforge.net/DTD/sodipodi-0.dtd"
   xmlns="http://www.w3.org/2000/svg"
   xmlns:svg="http://www.w3.org/2000/svg">
  <defs
     id="defs262">
    <clipPath
       clipPathUnits="userSpaceOnUse"
       id="clipPath290">
      <path
         d="m 4340.08,4740.7 c 0,3746.46 0,7492.9 0,11239.3 3553.31,0 7106.62,0 10659.92,0 3513.6,0 7027.2,0 10540.8,0 39.7,0 79.4,0 119.1,0 0,-3746.4 0,-7492.84 0,-11239.3 -39.7,0 -79.4,0 -119.1,0 -3513.6,0 -7027.2,0 -10540.8,0 -3553.3,0 -7106.61,0 -10659.92,0 z"
         id="path288" />
    </clipPath>
    <clipPath
       clipPathUnits="userSpaceOnUse"
       id="clipPath296">
      <path
         d="m 4340.08,4740.7 c 0,3746.46 0,7492.9 0,11239.3 3553.31,0 7106.62,0 10659.92,0 3513.6,0 7027.2,0 10540.8,0 39.7,0 79.4,0 119.1,0 0,-3746.4 0,-7492.84 0,-11239.3 -39.7,0 -79.4,0 -119.1,0 -3513.6,0 -7027.2,0 -10540.8,0 -3553.3,0 -7106.61,0 -10659.92,0"
         id="path294" />
    </clipPath>
    <clipPath
       clipPathUnits="userSpaceOnUse"
       id="clipPath322">
      <path
         d="m 4919.43,15400.7 c 6720.37,0 13440.77,0 20161.17,0 0,-9.4 0,-18.8 0,-28.2 0,-8659.2 0,-7729.5 0,-9996.1 0,-18.8 0,-37.5 0,-56.3 -6720.4,0 -13440.8,0 -20161.17,0 0,18.8 0,37.5 0,56.3 0,2266.6 0,1336.9 0,9996.1 0,9.4 0,18.8 0,28.2 z"
         id="path320" />
    </clipPath>
    <clipPath
       clipPathUnits="userSpaceOnUse"
       id="clipPath328">
      <path
         d="m 4919.43,15400.7 c 6720.37,0 13440.77,0 20161.17,0 0,-9.4 0,-18.8 0,-28.2 0,-8659.2 0,-7729.5 0,-9996.1 0,-18.8 0,-37.5 0,-56.3 -6720.4,0 -13440.8,0 -20161.17,0 0,18.8 0,37.5 0,56.3 0,2266.6 0,1336.9 0,9996.1 0,9.4 0,18.8 0,28.2"
         id="path326" />
    </clipPath>
  </defs>
  <sodipodi:namedview
     id="namedview260"
     pagecolor="#ffffff"
     bordercolor="#000000"
     borderopacity="0.25"
     inkscape:showpageshadow="2"
     inkscape:pageopacity="0.0"
     inkscape:pagecheckerboard="0"
     inkscape:deskcolor="#d1d1d1"
     showgrid="false"
     inkscape:zoom="0.21248559"
     inkscape:cx="1901.3054"
     inkscape:cy="788.28876"
     inkscape:window-width="2132"
     inkscape:window-height="1205"
     inkscape:window-x="0"
     inkscape:window-y="31"
     inkscape:window-maximized="0"
     inkscape:current-layer="g268">
    <inkscape:page
       x="0"
       y="0"
       id="page264"
       width="4000"
       height="3000" />
  </sodipodi:namedview>
  <g
     id="g266"
     inkscape:groupmode="layer"
     inkscape:label="Page 1"
     transform="matrix(1.3333333,0,0,-1.3333333,0,2400)">
    <g
       id="g268"
       transform="scale(0.1)">
      <path
         d="M 0,0 H 30000 V 18000 H 0 Z"
         style="fill:#f4dda7;fill-opacity:1;fill-rule:nonzero;stroke:none"
         id="path270" />
      <path
         d="M 0,-4500.0001 H 30000.001 L 30000,2470 H 0 Z"
         style="fill:#ebc67f;fill-opacity:1;fill-rule:nonzero;stroke:none;stroke-width:1.34415"
         id="path272"
         sodipodi:nodetypes="ccccc" />
      <path
         d="m 30000,0 h -2748.2 c -2916.9,780.801 -6560.6,1445.7 -10772.5,1545 -364.3,8.6 -725.8,12.7 -1083,12.7 C 10777.4,1557.7 6758.7,861 3532.16,0 H 0 v 1402 c 958.531,118.8 1955.51,227.8 2988.85,323.6 H 20910.4 C 24221.5,1418.1 27262.7,963.5 30000,443.5 V 0"
         style="fill:#e8c07b;fill-opacity:1;fill-rule:nonzero;stroke:none"
         id="path274" />
      <path
         d="m 30000,443.5 c -2737.3,520 -5778.5,974.6 -9089.6,1282.1 H 30000 V 443.5 M 0,1402 v 323.6 H 2988.85 C 1955.51,1629.8 958.531,1520.8 0,1402"
         style="fill:#e3b976;fill-opacity:1;fill-rule:nonzero;stroke:none"
         id="path276" />
      <path
         d="M 30000,2470 H 0 v 9934.2 c 2268.15,-1012.3 6034.05,-2309.4 10574.8,-2309.2 2548.5,0.2 5342.2,408.9 8250.3,1506.1 4226.8,1594.6 7370,4142.2 9532.7,6398.9 H 30000 V 2470"
         style="fill:#f0d6a1;fill-opacity:1;fill-rule:nonzero;stroke:none"
         id="path278" />
      <path
         d="M 20910.4,1725.6 H 2988.85 c 2743.97,254.2 5744.14,414.6 8966.05,414.6 1707.6,0 3477.7,-45.1 5304.1,-145.2 1250.7,-68.5 2468.1,-159.6 3651.4,-269.4"
         style="fill:#e5ba77;fill-opacity:1;fill-rule:nonzero;stroke:none"
         id="path280" />
      <path
         d="m 30000,1725.6 h -9089.6 c -1183.3,109.8 -2400.7,200.9 -3651.4,269.4 -1826.4,100.1 -3596.5,145.2 -5304.1,145.2 -3221.91,0 -6222.08,-160.4 -8966.05,-414.6 H 0 V 2470 h 30000 v -744.4"
         style="fill:#e0b372;fill-opacity:1;fill-rule:nonzero;stroke:none"
         id="path282" />
      <g
         id="g284">
        <g
           id="g286"
           clip-path="url(#clipPath290)">
          <g
             id="g292"
             clip-path="url(#clipPath296)">
            <g
               id="g298"
               transform="matrix(10,0,0,-10,-66910,90910)">
              <path
                 d="m 7125.01,8616.9243 c 0,-374.6702 0,-749.3079 0,-1123.9456 177.6569,0 355.3137,0 532.9706,0 0,374.6377 0,749.2754 0,1123.9456 -177.6569,0 -355.3137,0 -532.9706,0 z"
                 style="fill:#a06a32;fill-opacity:1;fill-rule:nonzero;stroke:none"
                 id="path300" />
              <path
                 d="m 7657.9806,8616.9243 c 0,-374.6702 0,-749.3079 0,-1123.9456 177.6569,0 355.3463,0 533.0031,0 0,374.6377 0,749.2754 0,1123.9456 -177.6568,0 -355.3462,0 -533.0031,0 z"
                 style="fill:#87582b;fill-opacity:1;fill-rule:nonzero;stroke:none"
                 id="path302" />
              <path
                 d="m 8190.9837,8616.9243 c 0,-374.6702 0,-749.3079 0,-1123.9456 87.8362,0 175.6725,0 263.5087,0 0,374.6377 0,749.2754 0,1123.9456 -87.8362,0 -175.6725,0 -263.5087,0 z"
                 style="fill:#7e5229;fill-opacity:1;fill-rule:nonzero;stroke:none"
                 id="path304" />
              <path
                 d="m 8454.4924,8616.9243 c 0,-374.6702 0,-749.3079 0,-1123.9456 87.8362,0 175.7049,0 263.5411,0 0,374.6377 0,749.2754 0,1123.9456 -87.8362,0 -175.7049,0 -263.5411,0 z"
                 style="fill:#84552a;fill-opacity:1;fill-rule:nonzero;stroke:none"
                 id="path306" />
              <path
                 d="m 8718.0335,8616.9243 c 0,-374.6702 0,-749.3079 0,-1123.9456 87.8362,0 175.6724,0 263.5087,0 0,374.6377 0,749.2754 0,1123.9456 -87.8363,0 -175.6725,0 -263.5087,0 z"
                 style="fill:#8f5e2d;fill-opacity:1;fill-rule:nonzero;stroke:none"
                 id="path308" />
              <path
                 d="m 8981.5422,8616.9243 c 0,-374.6702 0,-749.3079 0,-1123.9456 87.8362,0 175.6724,0 263.5086,0 0,374.6377 0,749.2754 0,1123.9456 -87.8362,0 -175.6724,0 -263.5086,0 z"
                 style="fill:#9a6630;fill-opacity:1;fill-rule:nonzero;stroke:none"
                 id="path310" />
              <path
                 d="m 9245.0508,8616.9243 c 0,-374.6702 0,-749.3079 0,-1123.9456 3.9689,0 7.9378,0 11.9067,0 0,374.6377 0,749.2754 0,1123.9456 -3.9689,0 -7.9378,0 -11.9067,0 z"
                 style="fill:#a06a32;fill-opacity:1;fill-rule:nonzero;stroke:none"
                 id="path312" />
            </g>
          </g>
        </g>
      </g>
      <path
         d="M 25196.4,5204.2 H 4803.56 V 15516.5 H 25196.4 V 5204.2"
         style="fill:#105e1f;fill-opacity:1;fill-rule:nonzero;stroke:none"
         id="path314" />
      <g
         id="g316">
        <g
           id="g318"
           clip-path="url(#clipPath322)">
          <g
             id="g324"
             clip-path="url(#clipPath328)">
            <g
               id="g330"
               transform="matrix(10,0,0,-10,-66910,90910)">
              <path
                 d="m 7182.94,7550.9084 c 672.0092,0 1344.0492,0 2016.0892,0 0,0.2461 0,0.4923 0,0.7076 -672.04,0 -1344.08,0 -2016.0892,0 0,-0.2153 0,-0.4615 0,-0.7076 z"
                 style="fill:#a06a32;fill-opacity:1;fill-rule:nonzero;stroke:none"
                 id="path332" />
              <path
                 d="m 7182.94,7551.616 c 672.0092,0 1344.0492,0 2016.0892,0 0,0.2461 0,0.4615 0,0.7076 -672.04,0 -1344.08,0 -2016.0892,0 0,-0.2461 0,-0.4615 0,-0.7076 z"
                 style="fill:#686c35;fill-opacity:1;fill-rule:nonzero;stroke:none"
                 id="path334" />
              <path
                 d="m 7182.94,7552.3236 c 672.0092,0 1344.0492,0 2016.0892,0 0,0.2461 0,0.4614 0,0.7076 -672.04,0 -1344.08,0 -2016.0892,0 0,-0.2462 0,-0.4615 0,-0.7076 z"
                 style="fill:#416e38;fill-opacity:1;fill-rule:nonzero;stroke:none"
                 id="path336" />
              <path
                 d="m 7182.94,7553.0312 c 672.0092,0 1344.0492,0 2016.0892,0 0,0.2461 0,0.4614 0,0.7075 -672.04,0 -1344.08,0 -2016.0892,0 0,-0.2461 0,-0.4614 0,-0.7075 z"
                 style="fill:#296f3a;fill-opacity:1;fill-rule:nonzero;stroke:none"
                 id="path338" />
              <path
                 d="m 7182.94,7553.7387 c 672.0092,0 1344.0492,0 2016.0892,0 0,216.4864 0,373.0138 0,489.6094 -672.04,0 -1344.08,0 -2016.0892,0 0,-116.5956 0,-273.123 0,-489.6094 z"
                 style="fill:#216f3b;fill-opacity:1;fill-rule:nonzero;stroke:none"
                 id="path340" />
              <path
                 d="m 7182.94,8043.3481 c 672.0092,0 1344.0492,0 2016.0892,0 0,116.5956 0,193.2596 0,249.9269 -672.04,0 -1344.08,0 -2016.0892,0 0,-56.6673 0,-133.3313 0,-249.9269 z"
                 style="fill:#176d36;fill-opacity:1;fill-rule:nonzero;stroke:none"
                 id="path342" />
              <path
                 d="m 7182.94,8293.275 c 672.0092,0 1344.0492,0 2016.0892,0 0,56.6365 0,93.338 0,130.0395 -672.04,0 -1344.08,0 -2016.0892,0 0,-36.7015 0,-73.403 0,-130.0395 z"
                 style="fill:#12662d;fill-opacity:1;fill-rule:nonzero;stroke:none"
                 id="path344" />
              <path
                 d="m 7182.94,8423.3145 c 672.0092,0 1344.0492,0 2016.0892,0 0,36.6707 0,73.3722 0,130.0395 -672.04,0 -1344.08,0 -2016.0892,0 0,-56.6673 0,-93.3688 0,-130.0395 z"
                 style="fill:#106023;fill-opacity:1;fill-rule:nonzero;stroke:none"
                 id="path346" />
              <path
                 d="m 7182.94,8553.354 c 672.0092,0 1344.0492,0 2016.0892,0 0,1.8766 0,3.7532 0,5.6298 -672.04,0 -1344.08,0 -2016.0892,0 0,-1.8766 0,-3.7532 0,-5.6298 z"
                 style="fill:#0f5d1f;fill-opacity:1;fill-rule:nonzero;stroke:none"
                 id="path348" />
            </g>
          </g>
        </g>
      </g>
    </g>
  </g>
</svg>
